<?xml version="1.0" encoding="utf-8"?>
<!-- Generator: Adobe Illustrator 21.1.0, SVG Export Plug-In . SVG Version: 6.00 Build 0)  -->
<svg version="1.1" id="Aquitaine" xmlns="http://www.w3.org/2000/svg" xmlns:xlink="http://www.w3.org/1999/xlink" x="0px" y="0px"
	 viewBox="0 0 1920 1080" style="enable-background:new 0 0 1920 1080;" xml:space="preserve">
<path id="Landes" class="st0" d="M505.9,434.4l81.9,18.5l12.3,2.3l4.3,3.5v5l-6.3,15.4l-1.9,11.2c0,0-0.1,0.8-0.3,1.6
	c-1.4,4-7.4,21.9-7.4,21.9l-17.7,8.5l-4.2-3.1v-17.7l-6.2-5.4l-55,14.1v11.3l10.4,7.3l-1.9,16.2l-10,20.4l-14.2,13.5l-1.5,26.5
	c0,0,0,0.4,0,0.7c-0.4,0-0.7,0.1-0.7,0.1l-16.5,1.5l-7.3,7.3l-30.8-2.3l-4.2-5l-4.6-2.7l-5.8-0.4l-18.8,11.9h-10l-11.2-6.2l-1.5-8.1
	l-12.7-0.4l-6.5,2.7l-35-1.2l-10,6.2l-28.5-1.9l-27.7,13.8l-21.9-1.9l-6.5-3.1h-5v-3.8v-3.8l-2.3-3.8l-3.5-3.5l-5.8-0.4l-18.1,0.4
	L154,612.5c0,0-14.7-13.3-19.3-17.6c0.1-0.1,0.1-0.1,0.1-0.1l19.2-22.3l4.2-32.5l37.3-44.1l33.1-66.2l28.1-72.3c0,0,0.3-0.7,0.6-1.5
	c1.2-0.5,2-0.8,2-0.8l41-17l5.7-1.7h3.9l7,1.7l11.7,10v5.2l-6.1,5.7l25.2,2.6l9.1,5.2h14.3l12.2-3l34.8-0.4l-3,14.3l3,7.8h19.1
	l21.3,9.1l14.3,13l3.5,5.7V426l-3,6.1l33,2.2"/>
<path id="Pyrenees" class="st0" d="M487.5,605.9l-16.5,1.5l-7.3,7.3l-30.8-2.3l-4.2-5l-4.6-2.7l-5.8-0.4l-18.8,11.9h-10
	l-11.2-6.2l-1.5-8.1l-12.7-0.4l-6.5,2.7l-35-1.2l-10,6.2l-28.5-1.9l-27.7,13.8l-21.9-1.9l-6.5-3.1h-5v-3.8v-3.8l-2.3-3.8l-3.5-3.5
	l-5.8-0.4l-18.1,0.4L154,612.5l-20.8-18.8c0,0-0.1-0.1-0.2-0.1c-0.1,0.1-0.2,0.1-0.2,0.1L71.3,634l-15.4-1.5l-17.3,16.2L80.9,689
	l39.6-10.4h8.1l11.5,16.2l-11.9,38.5L104,750.9l8.8,5l13.5,8.1l18.8-4.2l20.8-1.9h16.2l10.4,4.2l14.2,8.8l25,15.4l8.5,6.2l35.8,4.2
	l6.9-4.2h8.1l18.8,1.5l6.5,6.2l13.8,16.5l29.6,53.8l18.8-8.5l64.6,1.9c0,0,0,0,0.1,0c0.7-6,3.7-33.5,3.7-33.5l18.8-20l2.3-17.7
	l10.4-9.2l14.2,1.9l1.9-18.5l11.9-11.9H524l11.2-16.5l5-34.6l23.5-5.4l-6.5-13.1l8.8-13.1l-15.4-11.5c0,0-16.2-39.4-18.3-44.5
	c-0.1-0.1-0.2-0.1-0.2-0.1l-14.2-10h-30"/>
<path id="HautePyrenees" class="st0" d="M680.2,927.5l-46.9-4.2l-22.3-12.7h-17.7l-55.8,16.9l-35-36.5L473.2,869
	c0,0-25.1-3.5-30-4.1c0.4-3.2,3.8-34.3,3.8-34.3l18.8-20l2.3-17.7l10.4-9.2l14.2,1.9l1.9-18.5l11.9-11.9H524l11.2-16.5l5-34.6
	l23.5-5.4l-6.5-13.1l8.8-13.1l-15.4-11.5c0,0-15.5-37.8-18.1-44.1c0.2-0.3,0.4-0.5,0.4-0.5l9.6-11.9h19.6l2.7,10.8l28.8,22.3
	l5.8,22.3l28.8,25l11.9,0.8l8.1-10.4l21.2,1.9l17.7,19.6l41.2,2.7l25.8,10.8c0,0,0.2,0.1,0.3,0.1c-0.6,0.5-1.1,1-1.1,1l-40.8,37.3
	l-3.1,35.8l40.8,43.1l-24.6,38.8l-24.6-1.9l-1.9,47.7l-18.8,16.2"/>
<path id="Gers" class="st0" d="M774.8,482.1l-13.8,5.4h-9.2l-11.2-10h-8.5l-20.8,6.5l-19.2-2.3L669,494l-16.2-4.6l-11.9-1.9
	h-19.6c0,0-22.4,3.4-25.1,3.8c-1,2.8-7.6,22.3-7.6,22.3l-17.7,8.5l-4.2-3.1v-17.7l-6.2-5.4l-55,14.1v11.3l10.4,7.3l-1.9,16.2
	l-10,20.4l-14.2,13.5l-1.5,26.5c0,0,0,0.5-0.1,1.2c3.2,0,29.7,0,29.7,0l14.2,10c0,0,0.2,0.2,0.5,0.3c0.1-0.2,0.3-0.3,0.3-0.3
	l9.6-11.9h19.6l2.7,10.8l28.8,22.3l5.8,22.3l28.8,25l11.9,0.8l8.1-10.4l21.2,1.9l17.7,19.6l41.2,2.7l25.8,10.8c0,0,0.4,0.1,0.8,0.3
	c1.7-1,38.8-23,38.8-23l46.5,0.4l23.8,6.5l8.1-11.9l0.4-23.5l42.3-24.2l12.7-2.3l5-3.5l-1.9-4.2l-20-10l-53.5-41.2
	c0,0-6.7-10-8.2-12.3c-0.4-0.9-0.7-1.6-0.7-1.6L835.2,529l-18.1-7.7l-29.6-5.4l1.9-29.2l-5.8-5h-8.1"/>
<path id="HauteGaronne" class="st0" d="M1016.7,537.8h-60.8l-5.8,18.8l-20.8,10h-28.1l-22.7-8.8l-12.3,3.1l-18.1-1.5
	c0,0-0.3,0-0.7-0.1c0.5,0.8,1.1,1.6,1.1,1.6l8.5,12.7l53.5,41.2l20,10l1.9,4.2l-5,3.5l-12.7,2.3L872.5,659l-0.4,23.5l-8.1,11.9
	l-23.8-6.5l-46.5-0.4l-38.8,23.1c0,0-0.9,0.5-2,1.2c-4.4,4.1-40.3,36.9-40.3,36.9l-3.1,35.8l40.8,43.1l-24.6,38.8l-24.6-1.9
	l-1.9,47.7l-18.8,16.2l55,13.8l20.8-20.8l18.5-40.8l55.4,9.6l1.9-36.5l12.7-15.4l29.2-5l6.5-17.7l-8.8-14.6l33.8-20.8l40.8,2.3
	l9.2-18.5l30.8-9.2l-8.5-13.1v-12.3l23.8,0.8l16.9,26.9h18.5l15.4-11.5l46.9-1.9l9.6-21.2l24.6-10l15.4-19.2l21.9,11.5h24.6
	l11.5-4.2l-11.9-25.8l-25.8-9.2h-23.8l-26.2-33.1l-20.8-1.5l-41.9-64.6l-18.5-6.2l-21.5-23.5"/>
<path id="Tarn" class="st0" d="M848.2,559.4l18.1,1.5l12.3-3.1l22.7,8.8h28.1l20.8-10l5.8-18.8c0,0,51.9,0,59.8,0
	c0.5-0.4,1-0.8,1-0.8l35.4-27.1v-3.7l-4.6-10.8v-20l55.4,4.6l16.9-13.5l4.6-33.1l-23.1-13.1l-44.2-1.7l-16.5,12.5l-12.3-7.7
	l-6.9-1.5l-4.6,2.7v10l-7.3,3.8h-7.3l-4.6-6.5l-5-2.3h-6.2L960,442.8l-19.1-2.3l-13.1-8.8l5.8-6.2v-3.5h-25.4l-14.6-15.4l-11.9-8.1
	c0,0-14.3-2.8-18.5-3.6c-0.4,0.1-0.8,0.2-0.8,0.2l-29.6,6.2v30.8L819,467.8l-25.8-3.5l-16.5,16.2c0,0-0.6,0.6-1.2,1.2h8.1l5.8,5
	l-1.9,29.2l29.6,5.4l18.1,7.7l13.1,30.8"/>
<path id="LotGaronne" class="st0" d="M506,434.7l11.7-14.3l4.3-2.2h6.5l16.1,6.1l9.1,2.2l9.1-10.9v-9.1l-1.7-7.4l1.7-4.3
	l19.6-8.7l1.7-5.7l-7.4-9.1l0.4-18.3l44.3-29.1l2.6-5.2l-4.3-8.7l0.4-8.3c0,0,35.1-7.8,38.8-8.6c1.7,2,21,24.5,21,24.5l32.7,1.9
	l19.6-7.3l20.8,2.3l5,3.5l25.4,1.9l8.8-1.9H804l3.1,3.5l-3.1,6.9v6.9l2.7,7.7l6.2,1.2l22.7-5.4H854l9.2,10l-18.5,12.7l1.9,13.5
	l6.9,12.7l9.6,7.3c0,0,0.1,0.1,0.2,0.2c-0.5,0.1-1,0.2-1,0.2l-29.6,6.2v30.8L819,467.8l-25.8-3.5l-16.5,16.2c0,0-0.7,0.7-1.3,1.3
	c-0.3,0.1-0.6,0.2-0.6,0.2l-13.8,5.4h-9.2l-11.2-10h-8.5l-20.8,6.5l-19.2-2.3L669,494l-16.2-4.6l-11.9-1.9h-19.6
	c0,0-22.9,3.5-25.2,3.8c0.1-0.7,0.2-1.1,0.2-1.1l1.9-11.2l6.3-15.4v-5l-4.3-3.5l-12.3-2.3l-81.9-18.5"/>
<path id="Gironde" class="st0" d="M273.7,276.2c1.2-3.8,2.5-7.5,3.7-11.3c5.6-16.6,11.3-33,17.3-49.5c11-30.4,22.3-60.7,33.7-91
	c3.9-10.2,13.8-25.1,27-21.4c7.6,2.1,3.9,7.1,4.5,12.8c0.7,5.5,5.2,8.3,9.6,11c19.4,12,39.8,18.8,41.4,44.8c0.9,14.6,4,27.4,9.5,41
	c2.4,5.9,4.3,12.8,10.9,15.1c4.6,1.6,9.9,1.1,14.6,1.1c-0.6-0.8-0.6-0.8,0,0c0.3-12-11.4-20.5-14-32.5c-2.9-13.6-3.1-27.6-5.5-41.3
	c0.7,0.9,0.9,1.9,0.6,3.1c-2.1-5.9,7.9-1.2,11.1-0.5c2.9,0.6,3.5,0.1,6.4,0c2.6,0,3.8,0.1,6.5,0.9c6.9,2,13.9,3.7,20.7,6
	c12.9,4.3,17.1,19.6,27.3,27.9c10.6,8.6,23.7,13.9,37.2,15.8c14.7,2.1,29.7-1.3,44.5-1.5c9.8-0.2,34.5-1.2,27.7,15.4
	c-2.7,6.5-9.8,8.9-11.3,16.1c-1.3,5.7,0,10.3-3.7,15.1c-2.9,3.8-8.6,9.1-5.1,14c3.2,4.5,14.7,7,19.8,8.2c6.9,1.6,14,2,21,0.9
	c7.3-1.1,12.9-4.6,19.7-7c15.1-5.5,21.1,13,11,23.1c-2.3,0.5-39,8.7-39,8.7l-0.4,8.3l4.3,8.7l-2.6,5.2l-44.3,29.1l-0.4,18.3l7.4,9.1
	l-1.7,5.7l-19.6,8.7l-1.7,4.3l1.7,7.4v9.1l-9.1,10.9l-9.1-2.2l-16.1-6.1h-6.5l-4.3,2.2c0,0-11.6,14.2-11.7,14.3
	c-1.3-0.1-33-2.2-33-2.2l3-6.1v-12.6l-3.5-5.7l-14.3-13l-21.3-9.1h-19.1l-3-7.8l3-14.3l-34.8,0.4l-12.2,3h-14.3l-9.1-5.2l-25.2-2.6
	l6.1-5.7v-5.2l-11.7-10l-7-1.7H306l-5.7,1.7l-41,17c0,0-1.1,0.4-2.1,0.9c6.1-14.1,12-35.9,28.6-43c6.8-2.9,14.4-3.1,21.7-3.6
	c6.5-0.4,13.9,0.2,12.4-8.5c-2.6-14.7-23.9-23-33.4-9.9c-2,2.7-3,6-4.6,8.9c-1.8,3.4-4.3,5.7-6.8,8.6c-2,2.3-3.5,5.7-6.4,6.7
	c-1.7,0.5-7.7,0-6.6-1.3c-1.6,2.9,1.3-5.5,1.3-5.3c0.5-1.6,1-3.1,1.4-4.7c1.3-4.2,2.6-8.3,3.9-12.5
	C270.4,286.4,272,281.3,273.7,276.2z"/>
</svg>
